<?xml version="1.0" encoding="UTF-8" standalone="no"?>
<!DOCTYPE svg PUBLIC "-//W3C//DTD SVG 1.1//EN" "http://www.w3.org/Graphics/SVG/1.1/DTD/svg11.dtd">
<svg width="100%" height="100%" viewBox="0 0 102 45" version="1.1" xmlns="http://www.w3.org/2000/svg" xmlns:xlink="http://www.w3.org/1999/xlink" xml:space="preserve" xmlns:serif="http://www.serif.com/" style="fill-rule:evenodd;clip-rule:evenodd;stroke-linejoin:round;stroke-miterlimit:2;">
    <g transform="matrix(1,0,0,1,-360.391,-314.231)">
        <g transform="matrix(1.37052,0,0,1.37052,37.5666,-64.6374)">
            <g transform="matrix(12,0,0,12,262.281,291.777)">
                <path d="M0.753,-0.674C0.755,-0.663 0.756,-0.655 0.757,-0.651C0.758,-0.646 0.759,-0.64 0.759,-0.633C0.759,-0.611 0.754,-0.591 0.745,-0.572C0.735,-0.553 0.722,-0.539 0.705,-0.531C0.692,-0.549 0.675,-0.565 0.656,-0.578C0.637,-0.591 0.616,-0.601 0.593,-0.61C0.57,-0.618 0.546,-0.624 0.521,-0.628C0.496,-0.632 0.472,-0.634 0.449,-0.634C0.426,-0.634 0.404,-0.632 0.384,-0.628C0.363,-0.625 0.345,-0.62 0.33,-0.614C0.314,-0.607 0.302,-0.599 0.293,-0.59C0.283,-0.581 0.279,-0.57 0.279,-0.558C0.281,-0.543 0.29,-0.529 0.306,-0.514C0.322,-0.499 0.342,-0.484 0.365,-0.469C0.388,-0.455 0.414,-0.441 0.443,-0.427C0.471,-0.413 0.499,-0.4 0.526,-0.387C0.56,-0.371 0.589,-0.356 0.614,-0.343C0.639,-0.329 0.659,-0.314 0.675,-0.298C0.691,-0.281 0.703,-0.263 0.711,-0.242C0.719,-0.221 0.723,-0.196 0.723,-0.167C0.723,-0.133 0.717,-0.101 0.706,-0.071C0.695,-0.042 0.678,-0.016 0.657,0.006C0.635,0.028 0.609,0.045 0.578,0.057C0.547,0.07 0.513,0.076 0.475,0.076C0.438,0.076 0.397,0.07 0.354,0.059C0.311,0.048 0.27,0.032 0.233,0.012C0.195,-0.007 0.164,-0.03 0.139,-0.056C0.114,-0.081 0.101,-0.108 0.101,-0.137C0.101,-0.15 0.105,-0.167 0.113,-0.188C0.12,-0.209 0.134,-0.23 0.154,-0.253C0.156,-0.233 0.167,-0.209 0.187,-0.182C0.206,-0.155 0.236,-0.129 0.275,-0.106C0.312,-0.085 0.349,-0.069 0.389,-0.059C0.428,-0.05 0.464,-0.045 0.498,-0.045C0.535,-0.045 0.566,-0.05 0.589,-0.059C0.612,-0.068 0.631,-0.08 0.644,-0.093C0.657,-0.106 0.667,-0.119 0.672,-0.132C0.677,-0.145 0.68,-0.156 0.681,-0.164C0.68,-0.177 0.674,-0.19 0.663,-0.203C0.651,-0.215 0.635,-0.227 0.616,-0.238C0.596,-0.25 0.573,-0.262 0.547,-0.274C0.521,-0.286 0.494,-0.298 0.466,-0.31C0.424,-0.329 0.388,-0.346 0.358,-0.363C0.327,-0.379 0.302,-0.396 0.282,-0.412C0.263,-0.43 0.249,-0.447 0.239,-0.466C0.231,-0.485 0.226,-0.506 0.226,-0.53C0.226,-0.567 0.237,-0.603 0.26,-0.636C0.283,-0.669 0.315,-0.695 0.358,-0.712C0.379,-0.721 0.402,-0.728 0.427,-0.732C0.451,-0.736 0.475,-0.738 0.498,-0.738C0.542,-0.738 0.585,-0.732 0.627,-0.72C0.669,-0.708 0.711,-0.693 0.753,-0.674Z" style="fill:rgb(81,81,81);fill-rule:nonzero;"/>
            </g>
            <g transform="matrix(12,0,0,12,270.705,291.777)">
                <path d="M0.442,-0.404C0.449,-0.404 0.457,-0.403 0.466,-0.401C0.474,-0.398 0.483,-0.395 0.49,-0.392C0.497,-0.388 0.503,-0.384 0.508,-0.38C0.514,-0.376 0.516,-0.372 0.516,-0.369C0.503,-0.341 0.49,-0.313 0.479,-0.284C0.468,-0.256 0.458,-0.229 0.45,-0.203C0.442,-0.177 0.436,-0.153 0.432,-0.13C0.427,-0.107 0.425,-0.088 0.425,-0.071C0.425,-0.052 0.427,-0.037 0.431,-0.025C0.435,-0.012 0.442,-0.003 0.451,0.002C0.443,0.007 0.433,0.012 0.42,0.015C0.407,0.018 0.396,0.02 0.386,0.02C0.35,0.02 0.332,-0.005 0.332,-0.054C0.332,-0.092 0.345,-0.144 0.37,-0.21C0.357,-0.179 0.341,-0.151 0.324,-0.124C0.307,-0.097 0.289,-0.073 0.271,-0.053C0.253,-0.032 0.235,-0.015 0.217,-0.002C0.198,0.011 0.181,0.018 0.166,0.021C0.141,0.021 0.121,0.01 0.106,-0.013C0.091,-0.035 0.083,-0.064 0.083,-0.099C0.083,-0.136 0.091,-0.175 0.107,-0.217C0.123,-0.258 0.143,-0.297 0.169,-0.332C0.194,-0.368 0.221,-0.398 0.25,-0.421C0.279,-0.445 0.308,-0.457 0.335,-0.457C0.342,-0.455 0.349,-0.451 0.358,-0.445C0.366,-0.439 0.374,-0.432 0.382,-0.424C0.389,-0.416 0.396,-0.408 0.401,-0.4C0.406,-0.391 0.409,-0.384 0.41,-0.378C0.383,-0.374 0.356,-0.361 0.328,-0.339C0.299,-0.317 0.274,-0.291 0.251,-0.26C0.228,-0.229 0.209,-0.196 0.194,-0.161C0.179,-0.125 0.172,-0.093 0.172,-0.062C0.172,-0.049 0.177,-0.041 0.186,-0.038C0.205,-0.042 0.228,-0.059 0.253,-0.087C0.278,-0.117 0.309,-0.161 0.345,-0.222C0.352,-0.234 0.359,-0.247 0.368,-0.262C0.376,-0.277 0.384,-0.292 0.393,-0.308C0.402,-0.324 0.41,-0.34 0.419,-0.357C0.427,-0.373 0.435,-0.389 0.442,-0.404Z" style="fill:rgb(81,81,81);fill-rule:nonzero;"/>
            </g>
            <g transform="matrix(12,0,0,12,276.345,291.777)">
                <path d="M0.096,-0.064C0.096,-0.093 0.103,-0.135 0.117,-0.188C0.131,-0.241 0.151,-0.302 0.176,-0.373C0.217,-0.486 0.256,-0.58 0.293,-0.655C0.329,-0.73 0.364,-0.788 0.399,-0.83C0.407,-0.829 0.417,-0.825 0.429,-0.82C0.44,-0.815 0.452,-0.809 0.463,-0.803C0.474,-0.796 0.485,-0.79 0.494,-0.783C0.502,-0.776 0.508,-0.771 0.511,-0.767C0.459,-0.706 0.413,-0.64 0.374,-0.569C0.335,-0.498 0.299,-0.417 0.266,-0.326C0.238,-0.247 0.217,-0.177 0.202,-0.114C0.187,-0.051 0.18,0.002 0.18,0.044L0.18,0.065C0.18,0.068 0.18,0.07 0.181,0.073C0.172,0.072 0.164,0.069 0.157,0.066C0.15,0.063 0.146,0.059 0.144,0.054C0.143,0.051 0.139,0.046 0.133,0.039C0.127,0.033 0.122,0.028 0.117,0.025C0.111,0.021 0.106,0.01 0.102,-0.007C0.098,-0.024 0.096,-0.043 0.096,-0.064Z" style="fill:rgb(81,81,81);fill-rule:nonzero;"/>
            </g>
            <g transform="matrix(12,0,0,12,279.177,291.777)">
                <path d="M0.369,-0.022C0.356,-0.033 0.348,-0.046 0.344,-0.062C0.339,-0.078 0.337,-0.092 0.337,-0.103C0.337,-0.117 0.339,-0.129 0.342,-0.139C0.339,-0.139 0.333,-0.134 0.324,-0.123C0.315,-0.112 0.305,-0.1 0.294,-0.085C0.282,-0.071 0.272,-0.056 0.261,-0.042C0.25,-0.028 0.242,-0.018 0.237,-0.011C0.228,-0.002 0.22,0.005 0.213,0.011C0.205,0.016 0.199,0.019 0.194,0.02C0.183,0.019 0.172,0.018 0.161,0.014C0.149,0.01 0.138,0.005 0.128,-0.002C0.117,-0.008 0.108,-0.016 0.101,-0.026C0.093,-0.035 0.088,-0.046 0.085,-0.058C0.085,-0.077 0.086,-0.092 0.086,-0.104C0.087,-0.116 0.09,-0.129 0.093,-0.143C0.099,-0.168 0.108,-0.197 0.119,-0.229C0.131,-0.261 0.145,-0.293 0.16,-0.324C0.175,-0.355 0.193,-0.384 0.212,-0.41C0.231,-0.438 0.251,-0.459 0.272,-0.474C0.278,-0.474 0.285,-0.473 0.293,-0.472C0.301,-0.471 0.309,-0.47 0.318,-0.467C0.326,-0.464 0.334,-0.461 0.342,-0.458C0.349,-0.454 0.356,-0.449 0.361,-0.443C0.355,-0.436 0.34,-0.414 0.316,-0.376C0.291,-0.338 0.264,-0.283 0.234,-0.212C0.231,-0.205 0.227,-0.194 0.222,-0.18C0.217,-0.166 0.213,-0.151 0.208,-0.136C0.203,-0.121 0.2,-0.106 0.197,-0.091C0.194,-0.076 0.192,-0.065 0.192,-0.056C0.192,-0.051 0.193,-0.047 0.195,-0.044C0.196,-0.041 0.198,-0.039 0.199,-0.038C0.209,-0.042 0.222,-0.053 0.237,-0.071C0.252,-0.089 0.274,-0.117 0.301,-0.154C0.308,-0.163 0.316,-0.174 0.325,-0.186C0.334,-0.198 0.343,-0.211 0.352,-0.225C0.361,-0.238 0.37,-0.252 0.379,-0.267C0.387,-0.282 0.394,-0.296 0.399,-0.311C0.402,-0.319 0.405,-0.329 0.409,-0.34C0.414,-0.35 0.419,-0.362 0.426,-0.374C0.432,-0.386 0.439,-0.398 0.448,-0.41C0.456,-0.423 0.466,-0.434 0.477,-0.445C0.486,-0.445 0.495,-0.444 0.505,-0.442C0.515,-0.44 0.525,-0.438 0.534,-0.435C0.543,-0.432 0.55,-0.428 0.557,-0.425C0.564,-0.421 0.569,-0.417 0.572,-0.413C0.56,-0.384 0.547,-0.355 0.532,-0.326C0.517,-0.297 0.504,-0.269 0.491,-0.242C0.478,-0.214 0.468,-0.186 0.459,-0.159C0.45,-0.132 0.446,-0.105 0.446,-0.079C0.446,-0.065 0.447,-0.053 0.45,-0.043C0.452,-0.032 0.454,-0.024 0.457,-0.017C0.46,-0.01 0.462,-0.004 0.465,0.001C0.467,0.006 0.468,0.01 0.468,0.013C0.468,0.014 0.467,0.015 0.466,0.016C0.465,0.017 0.465,0.017 0.464,0.017C0.459,0.017 0.453,0.016 0.446,0.014C0.439,0.012 0.431,0.009 0.422,0.005C0.412,0.002 0.404,-0.002 0.395,-0.007C0.386,-0.012 0.377,-0.017 0.369,-0.022Z" style="fill:rgb(81,81,81);fill-rule:nonzero;"/>
            </g>
            <g transform="matrix(12,0,0,12,285.057,291.777)">
                <path d="M0.315,-0.467C0.328,-0.467 0.344,-0.463 0.361,-0.455C0.378,-0.447 0.394,-0.437 0.407,-0.424C0.404,-0.451 0.4,-0.476 0.395,-0.5C0.39,-0.523 0.382,-0.548 0.373,-0.573C0.363,-0.598 0.35,-0.626 0.334,-0.656C0.318,-0.686 0.298,-0.72 0.274,-0.759C0.276,-0.765 0.281,-0.772 0.288,-0.78C0.295,-0.788 0.303,-0.796 0.312,-0.803C0.321,-0.81 0.33,-0.816 0.34,-0.821C0.349,-0.826 0.358,-0.83 0.367,-0.831C0.386,-0.81 0.403,-0.785 0.42,-0.753C0.437,-0.723 0.451,-0.689 0.464,-0.654C0.477,-0.618 0.487,-0.581 0.494,-0.543C0.5,-0.505 0.504,-0.469 0.504,-0.434C0.504,-0.399 0.5,-0.364 0.493,-0.327C0.485,-0.29 0.474,-0.255 0.461,-0.22C0.447,-0.185 0.431,-0.151 0.413,-0.12C0.395,-0.089 0.376,-0.061 0.355,-0.036C0.334,-0.011 0.312,0.009 0.289,0.024C0.266,0.04 0.244,0.05 0.221,0.054C0.175,0.049 0.14,0.034 0.116,0.009C0.091,-0.015 0.079,-0.048 0.079,-0.091C0.079,-0.114 0.083,-0.138 0.09,-0.165C0.097,-0.192 0.106,-0.218 0.117,-0.245C0.129,-0.271 0.143,-0.297 0.159,-0.322C0.174,-0.346 0.191,-0.369 0.209,-0.389C0.226,-0.409 0.244,-0.426 0.262,-0.44C0.28,-0.454 0.298,-0.463 0.315,-0.467ZM0.213,0.014C0.236,0.006 0.26,-0.012 0.283,-0.039C0.306,-0.066 0.327,-0.099 0.346,-0.136C0.365,-0.172 0.38,-0.212 0.392,-0.255C0.403,-0.297 0.409,-0.338 0.409,-0.377L0.409,-0.398C0.409,-0.401 0.409,-0.403 0.408,-0.406C0.392,-0.399 0.375,-0.388 0.357,-0.372C0.339,-0.356 0.321,-0.338 0.303,-0.317C0.285,-0.296 0.268,-0.273 0.252,-0.248C0.236,-0.223 0.222,-0.199 0.209,-0.174C0.196,-0.149 0.186,-0.126 0.179,-0.103C0.172,-0.08 0.168,-0.06 0.168,-0.043C0.168,-0.01 0.183,0.009 0.213,0.014Z" style="fill:rgb(81,81,81);fill-rule:nonzero;"/>
            </g>
        </g>
        <g transform="matrix(1.9494,0,0,1.9494,-121.484,-344.774)">
            <g transform="matrix(12,0,0,12,283.501,353.316)">
                <path d="M0.321,-0.039C0.308,-0.041 0.294,-0.046 0.28,-0.055C0.265,-0.064 0.251,-0.074 0.238,-0.086C0.243,-0.105 0.249,-0.125 0.254,-0.143C0.259,-0.163 0.265,-0.181 0.27,-0.2C0.259,-0.198 0.247,-0.197 0.236,-0.197L0.202,-0.197C0.178,-0.197 0.159,-0.203 0.145,-0.214C0.13,-0.226 0.123,-0.242 0.123,-0.262C0.123,-0.266 0.124,-0.271 0.126,-0.278C0.127,-0.285 0.129,-0.29 0.13,-0.293C0.143,-0.29 0.155,-0.289 0.167,-0.289L0.258,-0.289C0.273,-0.289 0.287,-0.29 0.301,-0.291C0.316,-0.333 0.332,-0.37 0.347,-0.403C0.363,-0.436 0.379,-0.462 0.394,-0.481C0.402,-0.48 0.412,-0.476 0.425,-0.471C0.438,-0.466 0.45,-0.46 0.463,-0.454C0.475,-0.447 0.486,-0.441 0.496,-0.434C0.506,-0.427 0.512,-0.422 0.515,-0.418C0.5,-0.401 0.485,-0.383 0.472,-0.364C0.459,-0.344 0.445,-0.322 0.432,-0.299C0.456,-0.301 0.477,-0.303 0.495,-0.305C0.512,-0.307 0.526,-0.308 0.535,-0.308C0.55,-0.308 0.563,-0.3 0.574,-0.285C0.585,-0.27 0.594,-0.248 0.599,-0.219C0.58,-0.222 0.564,-0.223 0.552,-0.223L0.519,-0.223C0.495,-0.223 0.472,-0.222 0.451,-0.221C0.429,-0.219 0.408,-0.217 0.389,-0.214C0.376,-0.186 0.364,-0.158 0.353,-0.129C0.342,-0.099 0.331,-0.07 0.321,-0.039Z" style="fill:rgb(113,188,84);fill-rule:nonzero;"/>
            </g>
        </g>
        <g transform="matrix(1.33151,0,0,1.33151,-127.496,-186.859)">
            <g transform="matrix(12,0,0,12,394.907,405.305)">
                <path d="M0.79,-0.551C0.79,-0.51 0.779,-0.473 0.756,-0.441C0.733,-0.408 0.702,-0.381 0.663,-0.36C0.688,-0.343 0.709,-0.322 0.724,-0.297C0.739,-0.272 0.746,-0.244 0.746,-0.214C0.746,-0.178 0.735,-0.142 0.714,-0.108C0.692,-0.073 0.663,-0.042 0.627,-0.015C0.591,0.012 0.55,0.034 0.504,0.051C0.458,0.068 0.411,0.076 0.363,0.076C0.311,0.076 0.266,0.066 0.227,0.046C0.188,0.027 0.157,-0.001 0.135,-0.037C0.142,-0.057 0.151,-0.082 0.162,-0.112C0.172,-0.141 0.185,-0.172 0.198,-0.205C0.211,-0.238 0.225,-0.271 0.238,-0.304C0.252,-0.337 0.265,-0.366 0.277,-0.392C0.302,-0.449 0.325,-0.496 0.345,-0.533C0.365,-0.57 0.383,-0.6 0.4,-0.622C0.363,-0.611 0.33,-0.598 0.3,-0.584C0.27,-0.569 0.248,-0.555 0.234,-0.542C0.228,-0.546 0.222,-0.552 0.216,-0.56C0.209,-0.568 0.203,-0.577 0.198,-0.587C0.192,-0.596 0.187,-0.606 0.184,-0.616C0.18,-0.626 0.178,-0.635 0.177,-0.643C0.194,-0.655 0.217,-0.667 0.245,-0.678C0.272,-0.689 0.302,-0.698 0.335,-0.706C0.368,-0.714 0.401,-0.72 0.436,-0.725C0.47,-0.73 0.503,-0.732 0.534,-0.732C0.614,-0.732 0.677,-0.716 0.722,-0.684C0.767,-0.652 0.79,-0.608 0.79,-0.551ZM0.409,-0.312C0.396,-0.318 0.385,-0.327 0.374,-0.339C0.359,-0.305 0.344,-0.272 0.331,-0.239C0.317,-0.206 0.305,-0.176 0.294,-0.148C0.283,-0.12 0.275,-0.096 0.268,-0.075C0.261,-0.054 0.258,-0.039 0.257,-0.03C0.266,-0.025 0.278,-0.021 0.291,-0.018C0.304,-0.015 0.32,-0.014 0.339,-0.014C0.384,-0.014 0.428,-0.02 0.469,-0.033C0.51,-0.046 0.547,-0.063 0.578,-0.085C0.609,-0.106 0.634,-0.131 0.653,-0.159C0.672,-0.187 0.681,-0.216 0.681,-0.247C0.681,-0.291 0.662,-0.323 0.624,-0.342C0.572,-0.321 0.513,-0.31 0.448,-0.31L0.427,-0.31C0.422,-0.31 0.416,-0.311 0.409,-0.312ZM0.603,-0.659C0.589,-0.659 0.574,-0.658 0.559,-0.657C0.543,-0.655 0.526,-0.652 0.509,-0.649C0.512,-0.646 0.514,-0.644 0.516,-0.641C0.517,-0.637 0.519,-0.634 0.52,-0.631C0.514,-0.623 0.507,-0.611 0.498,-0.596C0.489,-0.581 0.48,-0.563 0.469,-0.543C0.458,-0.522 0.447,-0.5 0.436,-0.475C0.424,-0.45 0.412,-0.425 0.4,-0.399C0.411,-0.402 0.425,-0.404 0.442,-0.406C0.458,-0.407 0.474,-0.408 0.49,-0.408C0.499,-0.408 0.507,-0.408 0.516,-0.407C0.524,-0.406 0.532,-0.405 0.54,-0.404C0.572,-0.409 0.601,-0.417 0.626,-0.428C0.652,-0.438 0.674,-0.45 0.693,-0.464C0.712,-0.477 0.726,-0.492 0.736,-0.509C0.746,-0.526 0.751,-0.543 0.751,-0.562C0.751,-0.594 0.738,-0.618 0.713,-0.634C0.688,-0.651 0.651,-0.659 0.603,-0.659Z" style="fill:rgb(81,81,81);fill-rule:nonzero;"/>
            </g>
            <g transform="matrix(12,0,0,12,403.439,405.305)">
                <path d="M0.098,-0.067C0.098,-0.073 0.099,-0.081 0.1,-0.09C0.101,-0.099 0.102,-0.111 0.105,-0.126C0.108,-0.141 0.111,-0.159 0.116,-0.18C0.12,-0.201 0.125,-0.227 0.132,-0.257C0.133,-0.264 0.136,-0.274 0.141,-0.289C0.146,-0.304 0.152,-0.319 0.16,-0.336C0.167,-0.352 0.177,-0.368 0.188,-0.383C0.199,-0.398 0.212,-0.41 0.227,-0.417C0.238,-0.414 0.253,-0.407 0.272,-0.397C0.291,-0.386 0.307,-0.37 0.32,-0.351C0.305,-0.334 0.292,-0.316 0.281,-0.299C0.271,-0.282 0.262,-0.264 0.254,-0.245C0.245,-0.226 0.237,-0.207 0.231,-0.187C0.224,-0.167 0.216,-0.146 0.207,-0.124C0.2,-0.105 0.193,-0.086 0.187,-0.067C0.181,-0.047 0.178,-0.03 0.177,-0.015C0.177,-0.003 0.177,0.005 0.177,0.01C0.176,0.015 0.174,0.018 0.171,0.018C0.168,0.018 0.163,0.016 0.155,0.013C0.147,0.01 0.139,0.004 0.131,-0.003C0.122,-0.01 0.115,-0.018 0.108,-0.029C0.101,-0.04 0.098,-0.052 0.098,-0.067ZM0.289,-0.501C0.289,-0.505 0.29,-0.511 0.292,-0.519C0.289,-0.522 0.286,-0.527 0.283,-0.534C0.281,-0.541 0.28,-0.547 0.28,-0.552C0.28,-0.558 0.281,-0.566 0.282,-0.577C0.284,-0.587 0.286,-0.598 0.289,-0.61C0.292,-0.622 0.295,-0.634 0.299,-0.648C0.303,-0.661 0.307,-0.672 0.311,-0.683C0.319,-0.683 0.329,-0.681 0.341,-0.677C0.352,-0.672 0.364,-0.667 0.376,-0.66C0.388,-0.653 0.399,-0.645 0.409,-0.636C0.419,-0.628 0.427,-0.62 0.432,-0.613C0.425,-0.606 0.415,-0.596 0.403,-0.583C0.391,-0.57 0.379,-0.556 0.368,-0.542C0.357,-0.527 0.346,-0.514 0.337,-0.501C0.328,-0.488 0.322,-0.479 0.319,-0.474C0.311,-0.475 0.304,-0.479 0.298,-0.485C0.292,-0.49 0.289,-0.496 0.289,-0.501Z" style="fill:rgb(81,81,81);fill-rule:nonzero;"/>
            </g>
            <g transform="matrix(12,0,0,12,406.271,405.305)">
                <path d="M0.455,-0.414C0.452,-0.373 0.445,-0.337 0.433,-0.308C0.421,-0.278 0.404,-0.252 0.382,-0.23C0.359,-0.207 0.332,-0.187 0.3,-0.169C0.268,-0.151 0.231,-0.134 0.188,-0.117C0.188,-0.113 0.187,-0.096 0.187,-0.091C0.187,-0.082 0.188,-0.073 0.189,-0.064C0.19,-0.055 0.193,-0.046 0.196,-0.038C0.199,-0.03 0.204,-0.024 0.21,-0.019C0.216,-0.014 0.224,-0.011 0.233,-0.011C0.251,-0.011 0.269,-0.015 0.286,-0.023C0.303,-0.031 0.32,-0.041 0.336,-0.053C0.351,-0.064 0.366,-0.077 0.38,-0.091C0.393,-0.104 0.405,-0.117 0.416,-0.128C0.423,-0.122 0.428,-0.116 0.433,-0.111C0.403,-0.071 0.37,-0.038 0.335,-0.012C0.299,0.015 0.265,0.032 0.233,0.039C0.187,0.034 0.151,0.017 0.126,-0.012C0.1,-0.04 0.087,-0.074 0.087,-0.114C0.087,-0.141 0.091,-0.169 0.099,-0.198C0.106,-0.226 0.117,-0.253 0.131,-0.28C0.144,-0.306 0.16,-0.331 0.179,-0.354C0.197,-0.377 0.217,-0.398 0.237,-0.415C0.259,-0.432 0.28,-0.446 0.303,-0.456C0.325,-0.466 0.347,-0.471 0.369,-0.471C0.4,-0.467 0.428,-0.448 0.455,-0.414ZM0.386,-0.381C0.368,-0.378 0.349,-0.371 0.33,-0.359C0.311,-0.347 0.293,-0.331 0.276,-0.311C0.259,-0.291 0.243,-0.268 0.229,-0.241C0.215,-0.214 0.204,-0.186 0.196,-0.155C0.249,-0.182 0.294,-0.215 0.329,-0.254C0.364,-0.293 0.383,-0.335 0.386,-0.381Z" style="fill:rgb(81,81,81);fill-rule:nonzero;"/>
            </g>
            <g transform="matrix(12,0,0,12,411.119,405.305)">
                <path d="M0.259,-0.485C0.276,-0.48 0.293,-0.468 0.308,-0.45C0.323,-0.431 0.335,-0.411 0.342,-0.389C0.335,-0.371 0.323,-0.349 0.308,-0.324C0.293,-0.299 0.277,-0.273 0.262,-0.247C0.247,-0.22 0.233,-0.195 0.221,-0.172C0.208,-0.148 0.201,-0.128 0.199,-0.113C0.21,-0.124 0.222,-0.138 0.234,-0.153C0.248,-0.168 0.26,-0.183 0.273,-0.198C0.285,-0.213 0.296,-0.226 0.307,-0.238C0.318,-0.251 0.326,-0.26 0.332,-0.266C0.345,-0.279 0.36,-0.295 0.377,-0.313C0.394,-0.33 0.412,-0.347 0.432,-0.363C0.451,-0.378 0.47,-0.392 0.489,-0.403C0.508,-0.413 0.526,-0.419 0.542,-0.419C0.559,-0.419 0.574,-0.413 0.586,-0.402C0.597,-0.39 0.606,-0.378 0.613,-0.365C0.613,-0.364 0.611,-0.362 0.606,-0.36C0.601,-0.357 0.593,-0.351 0.584,-0.34C0.575,-0.328 0.564,-0.312 0.553,-0.291C0.541,-0.27 0.53,-0.247 0.519,-0.223C0.507,-0.198 0.498,-0.173 0.491,-0.148C0.484,-0.123 0.48,-0.1 0.48,-0.079C0.48,-0.062 0.482,-0.052 0.487,-0.047C0.491,-0.042 0.497,-0.04 0.505,-0.04C0.512,-0.04 0.52,-0.042 0.528,-0.045C0.536,-0.048 0.542,-0.05 0.547,-0.05C0.55,-0.049 0.552,-0.046 0.554,-0.042C0.555,-0.037 0.556,-0.033 0.556,-0.03C0.551,-0.025 0.544,-0.021 0.537,-0.016C0.53,-0.011 0.522,-0.007 0.514,-0.003C0.506,0.001 0.498,0.004 0.491,0.007C0.483,0.01 0.476,0.011 0.47,0.011C0.451,0.011 0.435,0.008 0.423,0.002C0.41,-0.003 0.401,-0.011 0.394,-0.02C0.387,-0.029 0.382,-0.041 0.379,-0.054C0.376,-0.067 0.375,-0.08 0.375,-0.095C0.375,-0.103 0.376,-0.112 0.377,-0.122C0.378,-0.132 0.381,-0.144 0.385,-0.158C0.389,-0.171 0.395,-0.188 0.402,-0.206C0.409,-0.226 0.419,-0.248 0.43,-0.275C0.429,-0.275 0.42,-0.27 0.403,-0.261C0.386,-0.252 0.368,-0.237 0.349,-0.218C0.318,-0.188 0.29,-0.158 0.265,-0.129C0.239,-0.1 0.214,-0.067 0.188,-0.031C0.173,-0.01 0.161,0.007 0.15,0.021C0.139,0.036 0.129,0.045 0.121,0.05C0.107,0.042 0.097,0.031 0.09,0.016C0.083,0.002 0.078,-0.013 0.075,-0.028C0.075,-0.041 0.077,-0.057 0.081,-0.076C0.084,-0.095 0.089,-0.117 0.096,-0.141C0.102,-0.164 0.11,-0.189 0.119,-0.215C0.128,-0.241 0.139,-0.267 0.15,-0.293C0.175,-0.352 0.199,-0.398 0.22,-0.431C0.241,-0.464 0.254,-0.482 0.259,-0.485Z" style="fill:rgb(81,81,81);fill-rule:nonzero;"/>
            </g>
            <g transform="matrix(12,0,0,12,417.599,405.305)">
                <path d="M0.455,-0.414C0.452,-0.373 0.445,-0.337 0.433,-0.308C0.421,-0.278 0.404,-0.252 0.382,-0.23C0.359,-0.207 0.332,-0.187 0.3,-0.169C0.268,-0.151 0.231,-0.134 0.188,-0.117C0.188,-0.113 0.187,-0.096 0.187,-0.091C0.187,-0.082 0.188,-0.073 0.189,-0.064C0.19,-0.055 0.193,-0.046 0.196,-0.038C0.199,-0.03 0.204,-0.024 0.21,-0.019C0.216,-0.014 0.224,-0.011 0.233,-0.011C0.251,-0.011 0.269,-0.015 0.286,-0.023C0.303,-0.031 0.32,-0.041 0.336,-0.053C0.351,-0.064 0.366,-0.077 0.38,-0.091C0.393,-0.104 0.405,-0.117 0.416,-0.128C0.423,-0.122 0.428,-0.116 0.433,-0.111C0.403,-0.071 0.37,-0.038 0.335,-0.012C0.299,0.015 0.265,0.032 0.233,0.039C0.187,0.034 0.151,0.017 0.126,-0.012C0.1,-0.04 0.087,-0.074 0.087,-0.114C0.087,-0.141 0.091,-0.169 0.099,-0.198C0.106,-0.226 0.117,-0.253 0.131,-0.28C0.144,-0.306 0.16,-0.331 0.179,-0.354C0.197,-0.377 0.217,-0.398 0.237,-0.415C0.259,-0.432 0.28,-0.446 0.303,-0.456C0.325,-0.466 0.347,-0.471 0.369,-0.471C0.4,-0.467 0.428,-0.448 0.455,-0.414ZM0.386,-0.381C0.368,-0.378 0.349,-0.371 0.33,-0.359C0.311,-0.347 0.293,-0.331 0.276,-0.311C0.259,-0.291 0.243,-0.268 0.229,-0.241C0.215,-0.214 0.204,-0.186 0.196,-0.155C0.249,-0.182 0.294,-0.215 0.329,-0.254C0.364,-0.293 0.383,-0.335 0.386,-0.381Z" style="fill:rgb(81,81,81);fill-rule:nonzero;"/>
            </g>
            <g transform="matrix(12,0,0,12,422.447,405.305)">
                <path d="M0.442,-0.399C0.441,-0.386 0.439,-0.373 0.436,-0.359C0.432,-0.345 0.427,-0.333 0.422,-0.322C0.417,-0.311 0.411,-0.302 0.405,-0.295C0.399,-0.287 0.393,-0.283 0.388,-0.283C0.381,-0.284 0.376,-0.289 0.375,-0.299C0.375,-0.301 0.376,-0.304 0.378,-0.308C0.379,-0.312 0.381,-0.317 0.383,-0.323C0.385,-0.328 0.387,-0.333 0.389,-0.339C0.39,-0.344 0.391,-0.348 0.391,-0.353C0.391,-0.362 0.389,-0.37 0.385,-0.376C0.38,-0.382 0.374,-0.386 0.367,-0.386C0.34,-0.386 0.32,-0.369 0.306,-0.336C0.292,-0.303 0.285,-0.254 0.285,-0.189C0.285,-0.183 0.285,-0.179 0.286,-0.178L0.356,-0.178C0.357,-0.176 0.357,-0.174 0.357,-0.17C0.357,-0.164 0.356,-0.159 0.353,-0.157C0.338,-0.153 0.326,-0.15 0.317,-0.148C0.308,-0.146 0.301,-0.144 0.296,-0.142C0.291,-0.14 0.289,-0.138 0.288,-0.135C0.286,-0.133 0.286,-0.13 0.286,-0.126C0.286,-0.12 0.287,-0.098 0.287,-0.09C0.287,-0.034 0.272,0.011 0.242,0.045C0.211,0.079 0.169,0.098 0.115,0.103C0.106,0.103 0.096,0.1 0.086,0.095C0.076,0.091 0.067,0.085 0.058,0.077C0.049,0.07 0.041,0.062 0.034,0.053C0.027,0.044 0.023,0.035 0.02,0.025C0.02,-0 0.025,-0.024 0.036,-0.048C0.047,-0.071 0.061,-0.091 0.08,-0.109C0.098,-0.127 0.119,-0.141 0.145,-0.152C0.17,-0.163 0.197,-0.169 0.226,-0.169C0.226,-0.186 0.224,-0.202 0.221,-0.218C0.218,-0.234 0.214,-0.25 0.211,-0.265C0.207,-0.28 0.203,-0.295 0.2,-0.309C0.197,-0.324 0.195,-0.338 0.195,-0.352C0.195,-0.37 0.199,-0.388 0.206,-0.406C0.213,-0.423 0.223,-0.44 0.235,-0.455C0.247,-0.47 0.261,-0.483 0.277,-0.493C0.293,-0.504 0.31,-0.511 0.327,-0.516C0.334,-0.514 0.344,-0.508 0.357,-0.498C0.369,-0.488 0.381,-0.477 0.393,-0.466C0.405,-0.454 0.416,-0.441 0.425,-0.429C0.434,-0.417 0.44,-0.406 0.442,-0.399ZM0.112,0.058C0.128,0.051 0.143,0.041 0.158,0.028C0.172,0.016 0.184,0.001 0.195,-0.015C0.206,-0.031 0.214,-0.048 0.221,-0.066C0.227,-0.084 0.23,-0.101 0.23,-0.118C0.217,-0.117 0.202,-0.11 0.186,-0.1C0.17,-0.09 0.155,-0.077 0.141,-0.063C0.127,-0.049 0.115,-0.034 0.106,-0.019C0.097,-0.003 0.092,0.01 0.092,0.021C0.092,0.036 0.099,0.048 0.112,0.058Z" style="fill:rgb(81,81,81);fill-rule:nonzero;"/>
            </g>
            <g transform="matrix(12,0,0,12,426.599,405.305)">
                <path d="M0.156,-0.383C0.153,-0.387 0.15,-0.396 0.147,-0.408C0.144,-0.422 0.143,-0.433 0.143,-0.442C0.16,-0.439 0.177,-0.438 0.193,-0.438L0.237,-0.438C0.247,-0.458 0.258,-0.477 0.27,-0.497C0.281,-0.516 0.293,-0.534 0.304,-0.55C0.315,-0.566 0.325,-0.58 0.335,-0.591C0.344,-0.602 0.352,-0.61 0.357,-0.613C0.364,-0.613 0.372,-0.612 0.383,-0.61C0.393,-0.607 0.403,-0.604 0.414,-0.601C0.425,-0.597 0.434,-0.593 0.443,-0.589C0.452,-0.585 0.458,-0.581 0.461,-0.577C0.441,-0.552 0.424,-0.529 0.409,-0.507C0.395,-0.485 0.38,-0.461 0.363,-0.433L0.404,-0.433C0.417,-0.433 0.431,-0.434 0.445,-0.436C0.448,-0.433 0.451,-0.429 0.453,-0.424C0.455,-0.419 0.456,-0.413 0.456,-0.408C0.423,-0.395 0.384,-0.389 0.337,-0.389C0.32,-0.357 0.306,-0.325 0.293,-0.293C0.28,-0.262 0.269,-0.231 0.26,-0.202C0.251,-0.172 0.244,-0.144 0.238,-0.118C0.234,-0.092 0.231,-0.069 0.231,-0.048C0.231,-0.019 0.242,-0.002 0.264,0.001C0.284,-0.002 0.303,-0.007 0.321,-0.014C0.339,-0.021 0.355,-0.031 0.369,-0.042C0.373,-0.036 0.375,-0.031 0.376,-0.027C0.372,-0.021 0.365,-0.014 0.356,-0.006C0.346,0.002 0.335,0.01 0.324,0.017C0.313,0.025 0.302,0.031 0.291,0.037C0.28,0.042 0.272,0.045 0.267,0.046C0.25,0.045 0.234,0.042 0.217,0.035C0.2,0.029 0.185,0.02 0.172,0.01C0.158,0 0.147,-0.011 0.138,-0.023C0.129,-0.035 0.125,-0.048 0.125,-0.06C0.125,-0.076 0.127,-0.096 0.132,-0.12C0.136,-0.145 0.142,-0.171 0.15,-0.2C0.158,-0.228 0.167,-0.259 0.178,-0.29C0.189,-0.321 0.2,-0.352 0.213,-0.383L0.156,-0.383Z" style="fill:rgb(81,81,81);fill-rule:nonzero;"/>
            </g>
            <g transform="matrix(12,0,0,12,430.823,405.305)">
                <path d="M0.442,-0.404C0.449,-0.404 0.457,-0.403 0.466,-0.401C0.474,-0.398 0.483,-0.395 0.49,-0.392C0.497,-0.388 0.503,-0.384 0.508,-0.38C0.514,-0.376 0.516,-0.372 0.516,-0.369C0.503,-0.341 0.49,-0.313 0.479,-0.284C0.468,-0.256 0.458,-0.229 0.45,-0.203C0.442,-0.177 0.436,-0.153 0.432,-0.13C0.427,-0.107 0.425,-0.088 0.425,-0.071C0.425,-0.052 0.427,-0.037 0.431,-0.025C0.435,-0.012 0.442,-0.003 0.451,0.002C0.443,0.007 0.433,0.012 0.42,0.015C0.407,0.018 0.396,0.02 0.386,0.02C0.35,0.02 0.332,-0.005 0.332,-0.054C0.332,-0.092 0.345,-0.144 0.37,-0.21C0.357,-0.179 0.341,-0.151 0.324,-0.124C0.307,-0.097 0.289,-0.073 0.271,-0.053C0.253,-0.032 0.235,-0.015 0.217,-0.002C0.198,0.011 0.181,0.018 0.166,0.021C0.141,0.021 0.121,0.01 0.106,-0.013C0.091,-0.035 0.083,-0.064 0.083,-0.099C0.083,-0.136 0.091,-0.175 0.107,-0.217C0.123,-0.258 0.143,-0.297 0.169,-0.332C0.194,-0.368 0.221,-0.398 0.25,-0.421C0.279,-0.445 0.308,-0.457 0.335,-0.457C0.342,-0.455 0.349,-0.451 0.358,-0.445C0.366,-0.439 0.374,-0.432 0.382,-0.424C0.389,-0.416 0.396,-0.408 0.401,-0.4C0.406,-0.391 0.409,-0.384 0.41,-0.378C0.383,-0.374 0.356,-0.361 0.328,-0.339C0.299,-0.317 0.274,-0.291 0.251,-0.26C0.228,-0.229 0.209,-0.196 0.194,-0.161C0.179,-0.125 0.172,-0.093 0.172,-0.062C0.172,-0.049 0.177,-0.041 0.186,-0.038C0.205,-0.042 0.228,-0.059 0.253,-0.087C0.278,-0.117 0.309,-0.161 0.345,-0.222C0.352,-0.234 0.359,-0.247 0.368,-0.262C0.376,-0.277 0.384,-0.292 0.393,-0.308C0.402,-0.324 0.41,-0.34 0.419,-0.357C0.427,-0.373 0.435,-0.389 0.442,-0.404Z" style="fill:rgb(81,81,81);fill-rule:nonzero;"/>
            </g>
            <g transform="matrix(12,0,0,12,436.463,405.305)">
                <path d="M0.073,-0.02C0.076,-0.039 0.082,-0.065 0.091,-0.097C0.099,-0.128 0.109,-0.162 0.12,-0.198C0.131,-0.233 0.143,-0.269 0.156,-0.305C0.169,-0.341 0.181,-0.373 0.193,-0.402C0.202,-0.423 0.209,-0.439 0.216,-0.451C0.223,-0.462 0.23,-0.472 0.238,-0.48C0.247,-0.479 0.257,-0.476 0.267,-0.473C0.277,-0.47 0.287,-0.466 0.296,-0.461C0.305,-0.456 0.314,-0.452 0.321,-0.447C0.328,-0.442 0.334,-0.437 0.338,-0.432C0.32,-0.411 0.304,-0.386 0.291,-0.359C0.277,-0.332 0.263,-0.297 0.249,-0.254C0.285,-0.286 0.317,-0.317 0.344,-0.346C0.372,-0.375 0.398,-0.408 0.422,-0.444C0.426,-0.447 0.433,-0.449 0.443,-0.449C0.452,-0.449 0.461,-0.448 0.47,-0.445C0.479,-0.442 0.485,-0.437 0.488,-0.432C0.476,-0.4 0.47,-0.368 0.47,-0.337C0.47,-0.308 0.474,-0.286 0.483,-0.271C0.482,-0.267 0.478,-0.259 0.469,-0.248C0.461,-0.237 0.452,-0.226 0.442,-0.216C0.424,-0.225 0.408,-0.238 0.394,-0.255C0.38,-0.271 0.37,-0.289 0.363,-0.308C0.332,-0.286 0.305,-0.265 0.283,-0.244C0.261,-0.223 0.242,-0.199 0.227,-0.173C0.211,-0.148 0.198,-0.118 0.187,-0.085C0.175,-0.052 0.165,-0.012 0.155,0.034C0.149,0.033 0.142,0.031 0.134,0.027C0.125,0.024 0.117,0.019 0.109,0.014C0.1,0.009 0.093,0.003 0.086,-0.003C0.079,-0.009 0.075,-0.015 0.073,-0.02Z" style="fill:rgb(81,81,81);fill-rule:nonzero;"/>
            </g>
        </g>
        <g transform="matrix(0.299901,0,0,0.299901,221.77,239.106)">
            <g transform="matrix(0.36153,0,0,0.388105,364.933,-243.625)">
                <path d="M549.343,1474.93C523.487,1489.45 484.633,1470.82 506.328,1430.55C469.851,1426.44 484.562,1391.62 491.842,1389.52C449.77,1391.56 438.201,1420.49 425.621,1422.54C415.43,1420.86 400.066,1387.93 357.993,1385.89C308.151,1383.46 254.995,1419.73 272.519,1504.66C287.336,1576.48 342.533,1621.26 389.2,1643.68L391.939,1549.05C380.265,1545.84 371.682,1535.16 371.682,1522.47L372.59,1509.55L375.365,1457.02C375.512,1454.24 377.885,1452.1 380.666,1452.25C383.447,1452.4 385.583,1454.77 385.436,1457.55L383.281,1508.68C383.281,1511.47 385.54,1513.73 388.325,1513.73C391.109,1513.73 393.368,1511.47 393.368,1508.68L394.207,1457.25C394.207,1454.46 396.465,1452.2 399.25,1452.2C402.034,1452.2 404.292,1454.46 404.292,1457.25L404.966,1508.68C404.966,1511.47 407.223,1513.73 410.008,1513.73C412.793,1513.73 415.05,1511.47 415.05,1508.68L413.064,1457.55C412.916,1454.77 415.052,1452.4 417.832,1452.25C420.613,1452.1 422.987,1454.24 423.134,1457.02L425.908,1509.52L426.816,1522.47C426.816,1535.28 418.073,1546.05 406.229,1549.14L409.208,1652.06C416.302,1654.51 421.996,1655.8 425.621,1655.8C433.315,1655.8 444.798,1652.85 458.073,1647.36L459.249,1574.51L456.026,1574.51C456.026,1574.51 445.941,1574.51 445.941,1564.43C445.941,1554.34 445.714,1526.1 445.941,1513.33C446.117,1503.54 446.614,1494.5 454.01,1475C460.209,1458.66 465.385,1451.9 471.911,1447.86C477.206,1444.58 477.543,1450.63 477.543,1450.63L477.543,1565.77L478.699,1637.47C524.624,1612.55 562.016,1555.71 578.724,1504.66C579.732,1501.58 582.177,1495.48 581.938,1492.31C568.698,1492.41 551.672,1491.65 549.343,1474.93Z" style="fill:rgb(235,20,20);fill-rule:nonzero;"/>
            </g>
            <g transform="matrix(0.670842,0,0,0.705866,236.049,-688.96)">
                <path d="M424.99,1399.13C424.99,1399.13 367.17,1395.01 375.25,1330.93C375.25,1330.93 432.74,1338.35 424.99,1399.13Z" style="fill:rgb(113,188,84);fill-rule:nonzero;"/>
            </g>
            <g transform="matrix(0.633111,0,0,0.666165,251.119,-636.079)">
                <path d="M434.9,1396.54C434.9,1396.54 424.741,1357.05 465.536,1346.59C465.536,1346.59 471.27,1390.82 434.9,1396.54Z" style="fill:rgb(113,188,84);fill-rule:nonzero;"/>
            </g>
        </g>
    </g>
</svg>
